P1
128 64
00000000000000000000000000000000000000000000000000000000000000000000000000000000000000000000000000000000000000000000000000000000000000000000010100000000000000000000000000001000000000000000000000000000000000000000000000000000000000000000000000000000000000000000000010000101000101000010000100100010000010000001000100000000000000000000000000000000000000100111000010000111000111000000100000000000100001010001010001110010101001010000100000100000100000000000000000000000000000000000001010001001100010001010001000011000000000001000000000111110101010010100010100000000010000000100010100001000000000000000000000000100100110001000100010000010001010000000000010000000000101001010000001000010000000000100000001000010000010000000000000000000000001001010100010000000100011000100100000000000100000000001010001110000100001101000000001000000010011111011111000000011111000000000100011001000100000010000001010001000000000000000000000111110001010001010100100000000010000000100001000001000000000000000000000001000100010001000001000000010111110000000000010000000000101001010100101011001000000000010000010000101000010000010000000000010000100001000100010000100001000100000100000000000100000000001010001110001001001101000000000010001000000000000000000100000000000100001000001110001110011111001110000001000000000000000000000000000001000000000000000000000000000000000000000000000010000000000000000000000000000000000000000000000000000000000000000000000000000000000000000000000000000000000000000000000000000000000000000000000000000000000000000000000000000000000000000000000000000000000000000000000000000000000000000000000000000000000000000000000000000000000000000000000000000000000000000000000000000000000000000000000000000000000000000000000000000000000000000000000000000000000000000000000000000000000000000000000000000001111100111001111100111000111000000000000000000000000000000000111000111000111001111000111001110001111101111100111001000100111000010000010000000001010001010001000000000000000001000000001000010001010001010001010001010001010010010000010000010001010001000100000100000100000000010100010100010001000001000000100111110001000100010100110100010100010100000100010100000100000100000100010001000001111001111000001000111001000100010000010000010000000000001000001001010101000101111001000001000101111001111001000001111100010000000001010001000010010001001111000000000000001000000000000001000100010101011111010001010000010001010000010000010111010001000100000000010100010001000100010000010000000000000001000111110000100000000100110100010100010100000100010100000100000100010100010001000001000101000100010001000100000100010000010000001000000000010000010001000001000101000101000101001001000001000001000101000100010000001110001110000100001110001110000100000100000001000000001000000100001111010001011110001110011100011111010000001110010001001110000000000000000000000000000000000000000010000000000000000000000000000000000000000000000000000000000000000000000000000000000000000000000000000000000000000000000000000000000000000000000000000000000000000000000000000000000000000000000000000000000000000000000000000000000000000000000000000000000000000000000000000000000000000000000000000000000000000000000000000000000000000000000000000000000000000000000000000000000000000000000000000000000000000000000000000000000000000000000000000000000000000000000000000000000001000000011101000101000001000101000100111001111000111001111000111001111101000101000101000101000101000101111100111000100000111000101000000010010010010000011011010001010001010001010001010001010001000100010001010001010001010001010001000001001000001000000010010001000000100101000100000101010110010100010100010100010100010100000001000100010100010100010010100010100000100010000001000000100000000000001001100001000001010101010101000101000101000101000100111000010001000100101001000100010000101000010000100000010000001000000000000010011000010000010001010011010001011110010001011110000001000100010001001010010101000100000100001000001000000010000010000000000100100101000100000100010100010100010100000100010101000000010001000100010010100101010010100001000100000010000000100000100000000001001001001001000001000101000101000101000001010101001001000100010001000100010001101101000100010001000000100000000100001000000000001100010001011111010001010001001110010000001110010001001110000100001110000100010001010001000100011111001110000001001110000000000000000000000000000000000000000000000000000000010000000000000000000000000000000000000000000000000000000000000000000000000000000000000000000000000000000000000000000000000000000000000000000000000000000000000000000000000000000000000000000000000000000000000000000000001000000000000000000000000000000000000000000000000000000000000000000000000000000000000000000000000000000000000000000000000000000001000000000000000000000000000000000000000000000000000001000000010000000000000000000000000000000000000000000000000000000000000000000000000001000000000000000100000000001100000001000000010000000100100000110000000000000000000000000000000000000000000000000000000000000000010000000000000001000000000100000000010000000000000000001000000100000000000000000000000000000000000000000000000000000000000011100111100011100011110011100011100011110111100011000000110010010001000111100111100011100111100011110101110011110000000000000000000101000101000101000101000100010001000101000100010000000100101000010001010101000101000101000101000101100001000000000000000000001111010001010000010001011111000100010001010001000100000001001100000100010101010001010001010001010001010000001110000000000000000100010100010100000100010100000001000100010100010001000000010011000001000101010100010100010100010100010100000000010000000000000001000101000101000101000101000000010001000101000100010000000100101000010001010101000101000101000101000101000000000100000000000000001111011110001110001111001111000100001111010001001110000001001001001110010101010001001110011110001111010000011110000111110000000000000000000000000000000000000000000000010000000000000010010000000000000000000000000000000100000000010000000000000000000000000000000000000000000000000000000000000000111000000000000000011000000000000000000000000000000001000000000100000000000000000000000000000000000000000000000000000000000000000000000000000000000000000000000000000000000000000000000000000000000000000000000000000000000000000000000000000000000000000000000000000000000010010000000000000000000000000000000000000000000000000000000000000000010000000000000000000000000000000000000000001100010000110001010101101100000000000000000000000000000000000000000000000000000000000100000000000000000000000000000000000000000100000100000010010010010001000000000000000000000000000000000000000000000000000000000011100100010100010100010100010100010111110001000001000000100000000000000000000000000000000000000000000000000000000000000000000000010001000101000101000100101001000100001000100000010000000100000001000100000000000000000000000000000000000000000000000000000000000100010001001010010101000100010001000100000100000100000010000000010001000000000000000000000000000000000000000000000000000000000001000100010010100101010001000100010010000001000001000000100000000000000000000000000000000000000000000000000000000000000000000000010001000100010001010100101001000101000000010000010000001000000001000100000000000000000000000000000000000000000000000000000000000011001111000100001110010001001111011111000011000100001100000000011011000000000000000000000000000000000000000000000000000000000000000000000000000000000000000000010000000000000000000000000000000000000000000000000000000000000000000000000000000000000000000000000000000000000000000000000000111000000000000000000000000000000000000000000000000000000000000000000000000000000000000000000000000000000000000000000000000000000000000000000000000000000000000000000000000000000000000000000000000000000000000000000000000000000000000000000000000000000000000000000000000000000000000000000000000000000000000000000000000000000000000000000000000000000000000000000000000000000000000000000000000000000000000000000000000000000000000000000000000000000000000000000000000000000000000000000000000000000000000000000000000000000000000000000000000000000000000000000000000000000000000000000000000000000000000000000000000000000